<?xml version="1.0" encoding="UTF-8" standalone="no"?>
<!DOCTYPE svg PUBLIC "-//W3C//DTD SVG 1.1//EN" "http://www.w3.org/Graphics/SVG/1.1/DTD/svg11.dtd">
<svg width="100%" height="100%" viewBox="0 0 1500 300" version="1.1" xmlns="http://www.w3.org/2000/svg" xmlns:xlink="http://www.w3.org/1999/xlink" xml:space="preserve" xmlns:serif="http://www.serif.com/" style="fill-rule:evenodd;clip-rule:evenodd;stroke-linejoin:round;stroke-miterlimit:2;">
    <g transform="matrix(0.5,0,0,0.5,-87.5,-43.75)">
        <path d="M375,537.5C347.386,537.5 325,515.114 325,487.5L325,437.5C325,409.886 347.386,387.5 375,387.5L425,387.5L425,287.5L375,287.5C292.157,287.5 225,354.657 225,437.5L225,487.5C225,570.343 292.157,637.5 375,637.5L575,637.5L575,537.5L375,537.5Z" style="fill:rgb(41,171,226);fill-rule:nonzero;"/>
        <path d="M575,537.5C547.386,537.5 525,515.114 525,487.5L525,137.5L425,137.5L425,487.5C425,570.343 492.157,637.5 575,637.5L575,637.5L575,537.5L575,537.5Z" style="fill:rgb(0,113,188);fill-rule:nonzero;"/>
    </g>
    <g transform="matrix(1,0,0,1,25,2.84217e-14)">
        <g transform="matrix(160,0,0,160,225,206)">
            <path d="M0.073,-0C0.07,-0 0.067,-0.001 0.065,-0.004C0.062,-0.006 0.061,-0.009 0.061,-0.012L0.061,-0.688C0.061,-0.691 0.062,-0.694 0.065,-0.697C0.067,-0.699 0.07,-0.7 0.073,-0.7L0.323,-0.7C0.373,-0.7 0.417,-0.691 0.455,-0.674C0.492,-0.656 0.521,-0.631 0.542,-0.599C0.563,-0.567 0.573,-0.53 0.573,-0.488L0.573,-0.212C0.573,-0.17 0.563,-0.133 0.542,-0.101C0.521,-0.069 0.492,-0.044 0.455,-0.027C0.417,-0.009 0.373,-0 0.323,-0L0.073,-0ZM0.202,-0.126C0.202,-0.123 0.204,-0.121 0.207,-0.121L0.328,-0.121C0.359,-0.121 0.384,-0.131 0.403,-0.152C0.422,-0.173 0.431,-0.2 0.432,-0.235L0.432,-0.465C0.432,-0.5 0.423,-0.527 0.404,-0.548C0.385,-0.569 0.359,-0.579 0.327,-0.579L0.207,-0.579C0.204,-0.579 0.202,-0.577 0.202,-0.574L0.202,-0.126Z" style="fill:white;fill-rule:nonzero;"/>
        </g>
        <g transform="matrix(160,0,0,160,323.4,206)">
            <path d="M0.257,-0.522C0.3,-0.522 0.339,-0.515 0.373,-0.5C0.407,-0.485 0.434,-0.464 0.453,-0.438C0.471,-0.412 0.481,-0.383 0.481,-0.351L0.481,-0.012C0.481,-0.009 0.48,-0.006 0.477,-0.004C0.475,-0.001 0.472,-0 0.469,-0L0.352,-0C0.349,-0 0.346,-0.001 0.344,-0.004C0.341,-0.006 0.34,-0.009 0.34,-0.012L0.34,-0.045C0.34,-0.047 0.339,-0.048 0.338,-0.049C0.337,-0.05 0.335,-0.049 0.334,-0.047C0.306,-0.01 0.261,0.008 0.199,0.008C0.147,0.008 0.105,-0.005 0.073,-0.03C0.041,-0.055 0.025,-0.093 0.025,-0.142C0.025,-0.193 0.043,-0.233 0.079,-0.262C0.115,-0.29 0.166,-0.304 0.233,-0.304L0.335,-0.304C0.338,-0.304 0.34,-0.306 0.34,-0.309L0.34,-0.331C0.34,-0.353 0.333,-0.37 0.32,-0.383C0.307,-0.395 0.287,-0.401 0.26,-0.401C0.239,-0.401 0.222,-0.397 0.209,-0.39C0.195,-0.383 0.186,-0.372 0.182,-0.359C0.18,-0.352 0.176,-0.348 0.169,-0.349L0.048,-0.365C0.04,-0.366 0.036,-0.369 0.037,-0.374C0.04,-0.402 0.051,-0.427 0.07,-0.45C0.09,-0.473 0.116,-0.49 0.149,-0.503C0.181,-0.516 0.217,-0.522 0.257,-0.522ZM0.237,-0.097C0.266,-0.097 0.29,-0.105 0.31,-0.12C0.33,-0.135 0.34,-0.155 0.34,-0.179L0.34,-0.215C0.34,-0.218 0.338,-0.22 0.335,-0.22L0.263,-0.22C0.233,-0.22 0.21,-0.214 0.193,-0.203C0.175,-0.192 0.167,-0.176 0.167,-0.155C0.167,-0.137 0.173,-0.123 0.186,-0.113C0.199,-0.102 0.216,-0.097 0.237,-0.097Z" style="fill:white;fill-rule:nonzero;"/>
        </g>
        <g transform="matrix(160,0,0,160,407.88,206)">
            <path d="M0.622,-0.522C0.674,-0.522 0.715,-0.506 0.744,-0.475C0.773,-0.444 0.788,-0.4 0.788,-0.343L0.788,-0.012C0.788,-0.009 0.787,-0.006 0.785,-0.004C0.782,-0.001 0.779,-0 0.776,-0L0.659,-0C0.656,-0 0.653,-0.001 0.651,-0.004C0.648,-0.006 0.647,-0.009 0.647,-0.012L0.647,-0.312C0.647,-0.339 0.64,-0.361 0.626,-0.377C0.612,-0.393 0.593,-0.401 0.57,-0.401C0.547,-0.401 0.528,-0.393 0.513,-0.377C0.498,-0.361 0.491,-0.34 0.491,-0.313L0.491,-0.012C0.491,-0.009 0.49,-0.006 0.488,-0.004C0.485,-0.001 0.482,-0 0.479,-0L0.363,-0C0.36,-0 0.357,-0.001 0.355,-0.004C0.352,-0.006 0.351,-0.009 0.351,-0.012L0.351,-0.312C0.351,-0.339 0.344,-0.36 0.329,-0.377C0.314,-0.393 0.295,-0.401 0.272,-0.401C0.251,-0.401 0.233,-0.395 0.219,-0.382C0.204,-0.369 0.196,-0.352 0.193,-0.329L0.193,-0.012C0.193,-0.009 0.192,-0.006 0.19,-0.004C0.187,-0.001 0.184,-0 0.181,-0L0.064,-0C0.061,-0 0.058,-0.001 0.056,-0.004C0.053,-0.006 0.052,-0.009 0.052,-0.012L0.052,-0.502C0.052,-0.505 0.053,-0.508 0.056,-0.51C0.058,-0.513 0.061,-0.514 0.064,-0.514L0.181,-0.514C0.184,-0.514 0.187,-0.513 0.19,-0.51C0.192,-0.508 0.193,-0.505 0.193,-0.502L0.193,-0.463C0.193,-0.461 0.194,-0.46 0.195,-0.459C0.196,-0.458 0.198,-0.459 0.199,-0.461C0.226,-0.502 0.269,-0.522 0.326,-0.522C0.359,-0.522 0.389,-0.515 0.413,-0.501C0.439,-0.487 0.458,-0.467 0.471,-0.441C0.473,-0.437 0.475,-0.437 0.478,-0.441C0.493,-0.468 0.513,-0.489 0.538,-0.502C0.563,-0.515 0.591,-0.522 0.622,-0.522Z" style="fill:white;fill-rule:nonzero;"/>
        </g>
        <g transform="matrix(160,0,0,160,541.48,206)">
            <path d="M0.32,-0.522C0.373,-0.522 0.416,-0.506 0.449,-0.473C0.482,-0.44 0.498,-0.396 0.498,-0.34L0.498,-0.012C0.498,-0.009 0.497,-0.006 0.495,-0.004C0.492,-0.001 0.489,-0 0.486,-0L0.369,-0C0.366,-0 0.363,-0.001 0.361,-0.004C0.358,-0.006 0.357,-0.009 0.357,-0.012L0.357,-0.311C0.357,-0.338 0.349,-0.359 0.335,-0.376C0.32,-0.393 0.3,-0.401 0.275,-0.401C0.25,-0.401 0.231,-0.393 0.216,-0.376C0.201,-0.359 0.193,-0.338 0.193,-0.311L0.193,-0.012C0.193,-0.009 0.192,-0.006 0.19,-0.004C0.187,-0.001 0.184,-0 0.181,-0L0.064,-0C0.061,-0 0.058,-0.001 0.056,-0.004C0.053,-0.006 0.052,-0.009 0.052,-0.012L0.052,-0.502C0.052,-0.505 0.053,-0.508 0.056,-0.51C0.058,-0.513 0.061,-0.514 0.064,-0.514L0.181,-0.514C0.184,-0.514 0.187,-0.513 0.19,-0.51C0.192,-0.508 0.193,-0.505 0.193,-0.502L0.193,-0.467C0.193,-0.465 0.194,-0.464 0.195,-0.463C0.196,-0.462 0.197,-0.463 0.198,-0.464C0.225,-0.503 0.266,-0.522 0.32,-0.522Z" style="fill:white;fill-rule:nonzero;"/>
        </g>
        <g transform="matrix(160,0,0,160,629,206)">
            <path d="M0.307,0.008C0.256,0.008 0.21,-0.002 0.171,-0.023C0.132,-0.044 0.101,-0.073 0.08,-0.11C0.058,-0.147 0.047,-0.189 0.047,-0.238L0.047,-0.462C0.047,-0.511 0.058,-0.554 0.08,-0.591C0.101,-0.628 0.132,-0.657 0.171,-0.678C0.21,-0.698 0.256,-0.708 0.307,-0.708C0.358,-0.708 0.403,-0.698 0.442,-0.678C0.481,-0.658 0.511,-0.631 0.533,-0.597C0.554,-0.562 0.565,-0.524 0.565,-0.482L0.565,-0.475C0.565,-0.472 0.564,-0.469 0.562,-0.467C0.559,-0.464 0.556,-0.463 0.553,-0.463L0.436,-0.463C0.433,-0.463 0.43,-0.464 0.428,-0.467C0.425,-0.469 0.424,-0.472 0.424,-0.475L0.424,-0.478C0.424,-0.509 0.413,-0.535 0.392,-0.556C0.371,-0.577 0.342,-0.587 0.307,-0.587C0.271,-0.587 0.242,-0.576 0.221,-0.554C0.199,-0.531 0.188,-0.502 0.188,-0.466L0.188,-0.234C0.188,-0.198 0.2,-0.169 0.223,-0.147C0.246,-0.124 0.276,-0.113 0.312,-0.113C0.347,-0.113 0.374,-0.122 0.395,-0.141C0.416,-0.159 0.426,-0.184 0.426,-0.217L0.426,-0.262C0.426,-0.265 0.424,-0.267 0.421,-0.267L0.309,-0.267C0.306,-0.267 0.303,-0.268 0.301,-0.271C0.298,-0.273 0.297,-0.276 0.297,-0.279L0.297,-0.371C0.297,-0.374 0.298,-0.377 0.301,-0.38C0.303,-0.382 0.306,-0.383 0.309,-0.383L0.553,-0.383C0.556,-0.383 0.559,-0.382 0.562,-0.38C0.564,-0.377 0.565,-0.374 0.565,-0.371L0.565,-0.239C0.565,-0.188 0.554,-0.144 0.533,-0.107C0.512,-0.07 0.482,-0.041 0.443,-0.021C0.404,-0.002 0.358,0.008 0.307,0.008Z" style="fill:white;fill-rule:nonzero;"/>
        </g>
        <g transform="matrix(160,0,0,160,726.76,206)">
            <path d="M0.279,0.008C0.223,0.008 0.175,-0.007 0.135,-0.036C0.095,-0.065 0.068,-0.105 0.053,-0.156C0.044,-0.187 0.039,-0.221 0.039,-0.258C0.039,-0.297 0.044,-0.333 0.053,-0.364C0.068,-0.413 0.096,-0.452 0.136,-0.48C0.176,-0.508 0.224,-0.522 0.28,-0.522C0.335,-0.522 0.381,-0.508 0.42,-0.481C0.459,-0.453 0.486,-0.414 0.502,-0.365C0.513,-0.332 0.518,-0.297 0.518,-0.26C0.518,-0.224 0.513,-0.19 0.504,-0.159C0.489,-0.107 0.462,-0.066 0.423,-0.037C0.383,-0.007 0.335,0.008 0.279,0.008ZM0.279,-0.113C0.301,-0.113 0.32,-0.12 0.335,-0.133C0.35,-0.146 0.361,-0.165 0.368,-0.188C0.373,-0.209 0.376,-0.233 0.376,-0.258C0.376,-0.286 0.373,-0.31 0.368,-0.329C0.361,-0.352 0.349,-0.369 0.334,-0.382C0.319,-0.395 0.3,-0.401 0.278,-0.401C0.255,-0.401 0.236,-0.395 0.222,-0.382C0.206,-0.369 0.196,-0.352 0.189,-0.329C0.184,-0.313 0.181,-0.289 0.181,-0.258C0.181,-0.228 0.183,-0.205 0.188,-0.188C0.195,-0.165 0.206,-0.146 0.222,-0.133C0.237,-0.12 0.256,-0.113 0.279,-0.113Z" style="fill:white;fill-rule:nonzero;"/>
        </g>
        <g transform="matrix(160,0,0,160,815.88,206)">
            <path d="M0.279,0.008C0.223,0.008 0.175,-0.007 0.135,-0.036C0.095,-0.065 0.068,-0.105 0.053,-0.156C0.044,-0.187 0.039,-0.221 0.039,-0.258C0.039,-0.297 0.044,-0.333 0.053,-0.364C0.068,-0.413 0.096,-0.452 0.136,-0.48C0.176,-0.508 0.224,-0.522 0.28,-0.522C0.335,-0.522 0.381,-0.508 0.42,-0.481C0.459,-0.453 0.486,-0.414 0.502,-0.365C0.513,-0.332 0.518,-0.297 0.518,-0.26C0.518,-0.224 0.513,-0.19 0.504,-0.159C0.489,-0.107 0.462,-0.066 0.423,-0.037C0.383,-0.007 0.335,0.008 0.279,0.008ZM0.279,-0.113C0.301,-0.113 0.32,-0.12 0.335,-0.133C0.35,-0.146 0.361,-0.165 0.368,-0.188C0.373,-0.209 0.376,-0.233 0.376,-0.258C0.376,-0.286 0.373,-0.31 0.368,-0.329C0.361,-0.352 0.349,-0.369 0.334,-0.382C0.319,-0.395 0.3,-0.401 0.278,-0.401C0.255,-0.401 0.236,-0.395 0.222,-0.382C0.206,-0.369 0.196,-0.352 0.189,-0.329C0.184,-0.313 0.181,-0.289 0.181,-0.258C0.181,-0.228 0.183,-0.205 0.188,-0.188C0.195,-0.165 0.206,-0.146 0.222,-0.133C0.237,-0.12 0.256,-0.113 0.279,-0.113Z" style="fill:white;fill-rule:nonzero;"/>
        </g>
        <g transform="matrix(160,0,0,160,905,206)">
            <path d="M0.371,-0.688C0.371,-0.691 0.372,-0.694 0.375,-0.697C0.377,-0.699 0.38,-0.7 0.383,-0.7L0.5,-0.7C0.503,-0.7 0.506,-0.699 0.508,-0.697C0.511,-0.694 0.512,-0.691 0.512,-0.688L0.512,-0.012C0.512,-0.009 0.511,-0.006 0.508,-0.004C0.506,-0.001 0.503,-0 0.5,-0L0.383,-0C0.38,-0 0.377,-0.001 0.375,-0.004C0.372,-0.006 0.371,-0.009 0.371,-0.012L0.371,-0.045C0.371,-0.047 0.37,-0.048 0.369,-0.049C0.368,-0.049 0.366,-0.048 0.365,-0.047C0.337,-0.01 0.299,0.008 0.25,0.008C0.203,0.008 0.163,-0.005 0.13,-0.031C0.096,-0.057 0.072,-0.093 0.057,-0.138C0.046,-0.173 0.04,-0.213 0.04,-0.259C0.04,-0.306 0.046,-0.348 0.058,-0.383C0.073,-0.426 0.098,-0.46 0.131,-0.485C0.164,-0.509 0.204,-0.522 0.253,-0.522C0.301,-0.522 0.338,-0.505 0.365,-0.472C0.366,-0.47 0.368,-0.469 0.369,-0.47C0.37,-0.471 0.371,-0.472 0.371,-0.474L0.371,-0.688ZM0.35,-0.156C0.363,-0.181 0.37,-0.214 0.37,-0.257C0.37,-0.302 0.363,-0.337 0.348,-0.362C0.333,-0.388 0.31,-0.401 0.281,-0.401C0.25,-0.401 0.226,-0.388 0.21,-0.362C0.193,-0.336 0.185,-0.301 0.185,-0.256C0.185,-0.216 0.192,-0.183 0.206,-0.156C0.223,-0.127 0.247,-0.113 0.28,-0.113C0.31,-0.113 0.333,-0.127 0.35,-0.156Z" style="fill:white;fill-rule:nonzero;"/>
        </g>
        <g transform="matrix(160,0,0,160,995.56,206)">
            <path d="M0.301,0.008C0.248,0.008 0.201,-0.001 0.161,-0.018C0.121,-0.035 0.09,-0.059 0.069,-0.091C0.047,-0.122 0.036,-0.159 0.036,-0.201L0.036,-0.223C0.036,-0.226 0.037,-0.229 0.04,-0.232C0.042,-0.234 0.045,-0.235 0.048,-0.235L0.162,-0.235C0.165,-0.235 0.168,-0.234 0.171,-0.232C0.173,-0.229 0.174,-0.226 0.174,-0.223L0.174,-0.208C0.174,-0.181 0.186,-0.159 0.211,-0.141C0.236,-0.122 0.269,-0.113 0.311,-0.113C0.346,-0.113 0.373,-0.121 0.39,-0.136C0.407,-0.151 0.416,-0.169 0.416,-0.191C0.416,-0.207 0.411,-0.221 0.4,-0.232C0.389,-0.243 0.375,-0.252 0.357,-0.261C0.338,-0.269 0.309,-0.28 0.269,-0.295C0.224,-0.31 0.187,-0.326 0.156,-0.342C0.125,-0.358 0.099,-0.38 0.078,-0.407C0.057,-0.435 0.046,-0.469 0.046,-0.51C0.046,-0.55 0.056,-0.585 0.077,-0.615C0.098,-0.645 0.126,-0.668 0.163,-0.684C0.2,-0.7 0.242,-0.708 0.29,-0.708C0.341,-0.708 0.386,-0.699 0.426,-0.681C0.465,-0.663 0.496,-0.638 0.519,-0.606C0.541,-0.573 0.552,-0.536 0.552,-0.493L0.552,-0.478C0.552,-0.475 0.551,-0.472 0.549,-0.469C0.546,-0.467 0.543,-0.466 0.54,-0.466L0.425,-0.466C0.422,-0.466 0.419,-0.467 0.417,-0.469C0.414,-0.472 0.413,-0.475 0.413,-0.478L0.413,-0.486C0.413,-0.514 0.402,-0.538 0.379,-0.558C0.356,-0.577 0.324,-0.587 0.284,-0.587C0.253,-0.587 0.228,-0.58 0.211,-0.567C0.193,-0.554 0.184,-0.535 0.184,-0.512C0.184,-0.495 0.189,-0.481 0.2,-0.47C0.21,-0.459 0.225,-0.449 0.246,-0.44C0.266,-0.431 0.297,-0.418 0.34,-0.403C0.387,-0.386 0.425,-0.37 0.452,-0.357C0.478,-0.344 0.503,-0.324 0.525,-0.298C0.546,-0.271 0.557,-0.237 0.557,-0.195C0.557,-0.132 0.534,-0.083 0.488,-0.047C0.442,-0.01 0.38,0.008 0.301,0.008Z" style="fill:white;fill-rule:nonzero;"/>
        </g>
        <g transform="matrix(160,0,0,160,1090.76,206)">
            <path d="M0.279,0.008C0.223,0.008 0.175,-0.007 0.135,-0.036C0.095,-0.065 0.068,-0.105 0.053,-0.156C0.044,-0.187 0.039,-0.221 0.039,-0.258C0.039,-0.297 0.044,-0.333 0.053,-0.364C0.068,-0.413 0.096,-0.452 0.136,-0.48C0.176,-0.508 0.224,-0.522 0.28,-0.522C0.335,-0.522 0.381,-0.508 0.42,-0.481C0.459,-0.453 0.486,-0.414 0.502,-0.365C0.513,-0.332 0.518,-0.297 0.518,-0.26C0.518,-0.224 0.513,-0.19 0.504,-0.159C0.489,-0.107 0.462,-0.066 0.423,-0.037C0.383,-0.007 0.335,0.008 0.279,0.008ZM0.279,-0.113C0.301,-0.113 0.32,-0.12 0.335,-0.133C0.35,-0.146 0.361,-0.165 0.368,-0.188C0.373,-0.209 0.376,-0.233 0.376,-0.258C0.376,-0.286 0.373,-0.31 0.368,-0.329C0.361,-0.352 0.349,-0.369 0.334,-0.382C0.319,-0.395 0.3,-0.401 0.278,-0.401C0.255,-0.401 0.236,-0.395 0.222,-0.382C0.206,-0.369 0.196,-0.352 0.189,-0.329C0.184,-0.313 0.181,-0.289 0.181,-0.258C0.181,-0.228 0.183,-0.205 0.188,-0.188C0.195,-0.165 0.206,-0.146 0.222,-0.133C0.237,-0.12 0.256,-0.113 0.279,-0.113Z" style="fill:white;fill-rule:nonzero;"/>
        </g>
        <g transform="matrix(160,0,0,160,1179.88,206)">
            <path d="M0.352,-0.502C0.352,-0.505 0.353,-0.508 0.356,-0.51C0.358,-0.513 0.361,-0.514 0.364,-0.514L0.481,-0.514C0.484,-0.514 0.487,-0.513 0.49,-0.51C0.492,-0.508 0.493,-0.505 0.493,-0.502L0.493,-0.012C0.493,-0.009 0.492,-0.006 0.49,-0.004C0.487,-0.001 0.484,-0 0.481,-0L0.364,-0C0.361,-0 0.358,-0.001 0.356,-0.004C0.353,-0.006 0.352,-0.009 0.352,-0.012L0.352,-0.046C0.352,-0.048 0.351,-0.049 0.35,-0.05C0.349,-0.05 0.347,-0.049 0.346,-0.047C0.319,-0.011 0.278,0.007 0.222,0.007C0.171,0.007 0.13,-0.008 0.097,-0.039C0.064,-0.07 0.048,-0.113 0.048,-0.168L0.048,-0.502C0.048,-0.505 0.049,-0.508 0.051,-0.51C0.054,-0.513 0.057,-0.514 0.06,-0.514L0.176,-0.514C0.179,-0.514 0.182,-0.513 0.185,-0.51C0.187,-0.508 0.188,-0.505 0.188,-0.502L0.188,-0.203C0.188,-0.176 0.195,-0.155 0.21,-0.138C0.224,-0.121 0.244,-0.113 0.269,-0.113C0.292,-0.113 0.31,-0.12 0.325,-0.134C0.34,-0.147 0.349,-0.165 0.352,-0.187L0.352,-0.502Z" style="fill:white;fill-rule:nonzero;"/>
        </g>
        <g transform="matrix(160,0,0,160,1267.08,206)">
            <path d="M0.32,-0.522C0.373,-0.522 0.416,-0.506 0.449,-0.473C0.482,-0.44 0.498,-0.396 0.498,-0.34L0.498,-0.012C0.498,-0.009 0.497,-0.006 0.495,-0.004C0.492,-0.001 0.489,-0 0.486,-0L0.369,-0C0.366,-0 0.363,-0.001 0.361,-0.004C0.358,-0.006 0.357,-0.009 0.357,-0.012L0.357,-0.311C0.357,-0.338 0.349,-0.359 0.335,-0.376C0.32,-0.393 0.3,-0.401 0.275,-0.401C0.25,-0.401 0.231,-0.393 0.216,-0.376C0.201,-0.359 0.193,-0.338 0.193,-0.311L0.193,-0.012C0.193,-0.009 0.192,-0.006 0.19,-0.004C0.187,-0.001 0.184,-0 0.181,-0L0.064,-0C0.061,-0 0.058,-0.001 0.056,-0.004C0.053,-0.006 0.052,-0.009 0.052,-0.012L0.052,-0.502C0.052,-0.505 0.053,-0.508 0.056,-0.51C0.058,-0.513 0.061,-0.514 0.064,-0.514L0.181,-0.514C0.184,-0.514 0.187,-0.513 0.19,-0.51C0.192,-0.508 0.193,-0.505 0.193,-0.502L0.193,-0.467C0.193,-0.465 0.194,-0.464 0.195,-0.463C0.196,-0.462 0.197,-0.463 0.198,-0.464C0.225,-0.503 0.266,-0.522 0.32,-0.522Z" style="fill:white;fill-rule:nonzero;"/>
        </g>
        <g transform="matrix(160,0,0,160,1354.12,206)">
            <path d="M0.371,-0.688C0.371,-0.691 0.372,-0.694 0.375,-0.697C0.377,-0.699 0.38,-0.7 0.383,-0.7L0.5,-0.7C0.503,-0.7 0.506,-0.699 0.508,-0.697C0.511,-0.694 0.512,-0.691 0.512,-0.688L0.512,-0.012C0.512,-0.009 0.511,-0.006 0.508,-0.004C0.506,-0.001 0.503,-0 0.5,-0L0.383,-0C0.38,-0 0.377,-0.001 0.375,-0.004C0.372,-0.006 0.371,-0.009 0.371,-0.012L0.371,-0.045C0.371,-0.047 0.37,-0.048 0.369,-0.049C0.368,-0.049 0.366,-0.048 0.365,-0.047C0.337,-0.01 0.299,0.008 0.25,0.008C0.203,0.008 0.163,-0.005 0.13,-0.031C0.096,-0.057 0.072,-0.093 0.057,-0.138C0.046,-0.173 0.04,-0.213 0.04,-0.259C0.04,-0.306 0.046,-0.348 0.058,-0.383C0.073,-0.426 0.098,-0.46 0.131,-0.485C0.164,-0.509 0.204,-0.522 0.253,-0.522C0.301,-0.522 0.338,-0.505 0.365,-0.472C0.366,-0.47 0.368,-0.469 0.369,-0.47C0.37,-0.471 0.371,-0.472 0.371,-0.474L0.371,-0.688ZM0.35,-0.156C0.363,-0.181 0.37,-0.214 0.37,-0.257C0.37,-0.302 0.363,-0.337 0.348,-0.362C0.333,-0.388 0.31,-0.401 0.281,-0.401C0.25,-0.401 0.226,-0.388 0.21,-0.362C0.193,-0.336 0.185,-0.301 0.185,-0.256C0.185,-0.216 0.192,-0.183 0.206,-0.156C0.223,-0.127 0.247,-0.113 0.28,-0.113C0.31,-0.113 0.333,-0.127 0.35,-0.156Z" style="fill:white;fill-rule:nonzero;"/>
        </g>
    </g>
</svg>
