<?xml version="1.0" encoding="UTF-8"?><svg id="a" xmlns="http://www.w3.org/2000/svg" viewBox="0 0 960 480"><defs><style>.b{fill:#0071bc;}.c{fill:#29abe2;}.d{fill:#f2f2f2;}</style></defs><g><path class="c" d="M150,315h0c-13.8071,0-25-11.1929-25-25h0v-25h0c0-13.8071,11.1929-25,25-25h25v-50h-25.0001c-41.4213,0-74.9999,33.5786-74.9999,74.9999h0v25.0001h0c0,41.4214,33.5786,75,74.9999,75h100.0001v-50h-100Z"/><path class="b" d="M250,315c-13.8071,0-25-11.1929-25-25h0V115h-50v175h0c0,41.4214,33.5786,75,74.9999,75h0v-50h0Z"/></g><g><path class="d" d="M355.1699,209.8745v-14.2998l63.25,.1099c3.2261,0,5.7012-.751,7.4253-2.2549,1.7222-1.502,2.5854-3.9409,2.5854-7.3149,0-3.3721-.8633-5.811-2.5854-7.3149-1.7241-1.5024-4.1992-2.2549-7.4253-2.2549h-39.3799c-8.1401,0-14.4648-1.9614-18.9751-5.8853-4.5098-3.9224-6.7651-9.6973-6.7651-17.3252s2.2554-13.4009,6.7651-17.3247c4.5103-3.9224,10.835-5.8853,18.9751-5.8853h61.8203v14.3003l-59.9502-.1099c-3.1543,0-5.6104,.7148-7.3701,2.1445-1.7603,1.4302-2.6401,3.7231-2.6401,6.875,0,3.1543,.8799,5.4453,2.6401,6.875,1.7598,1.4302,4.2158,2.145,7.3701,2.145h39.3799c8.1406,0,14.4648,1.999,18.9756,5.9951,4.5098,3.998,6.7646,9.9189,6.7646,17.7651,0,7.7739-2.2549,13.6777-6.7646,17.71-4.5107,4.0337-10.835,6.0498-18.9756,6.0498h-65.1201Z"/><path class="d" d="M487.6104,209.3247c-6.3799,0-11.0742-1.5952-14.0801-4.7852-3.0078-3.1899-4.5098-7.3872-4.5098-12.5947v-26.6201h-16.3906v-12.6499h16.3906v-17.3799h15.9492v17.3799h23.54v12.6499h-23.54v24.6401c0,4.4736,2.2002,6.71,6.6006,6.71h20.0195v12.6499h-23.9795Z"/><path class="d" d="M551.6289,209.8745c-9.8281,0-17.4902-2.437-22.9902-7.3149-5.5-4.876-8.25-12.0449-8.25-21.5049,0-9.5322,2.75-16.7373,8.25-21.6147,5.5-4.8765,13.1621-7.3154,22.9902-7.3154h27.5c6.4521,0,11.3848,1.5229,14.7949,4.5654,3.4102,3.0435,5.1152,7.3887,5.1152,13.0347,0,11.5142-6.6377,17.27-19.9102,17.27h-41.5801c1.54,6.8203,6.2324,10.23,14.0801,10.23h44.5498v12.6499h-44.5498Zm0-45.0996c-7.5537,0-12.21,3.1899-13.9697,9.5698h40.7002c1.4658,0,2.6211-.4399,3.4648-1.3198,.8418-.8804,1.2646-2.0903,1.2646-3.6304,0-3.0796-1.5771-4.6196-4.7295-4.6196h-26.7305Z"/><path class="d" d="M611.6875,209.3247v-56.6499h43.3398c6.3799,0,11.0723,1.5947,14.0801,4.7847,3.0068,3.1904,4.5107,7.3892,4.5107,12.5952v11.77h-16.1709v-9.79c0-4.3999-2.1992-6.6001-6.5996-6.6001h-22.9902v43.8901h-16.1699Z"/><path class="d" d="M716.4053,209.8745c-9.8281,0-17.4902-2.437-22.9902-7.3149-5.5-4.876-8.25-12.0449-8.25-21.5049,0-9.5322,2.75-16.7373,8.25-21.6147,5.5-4.8765,13.1621-7.3154,22.9902-7.3154h27.5c6.4521,0,11.3848,1.5229,14.7949,4.5654,3.4102,3.0435,5.1152,7.3887,5.1152,13.0347,0,11.5142-6.6377,17.27-19.9102,17.27h-41.5801c1.54,6.8203,6.2324,10.23,14.0801,10.23h44.5498v12.6499h-44.5498Zm0-45.0996c-7.5537,0-12.21,3.1899-13.9697,9.5698h40.7002c1.4658,0,2.6211-.4399,3.4648-1.3198,.8418-.8804,1.2646-2.0903,1.2646-3.6304,0-3.0796-1.5771-4.6196-4.7295-4.6196h-26.7305Z"/><path class="d" d="M805.5039,209.8745c-9.8281,0-17.4902-2.437-22.9902-7.3149-5.5-4.876-8.25-12.0449-8.25-21.5049,0-9.5322,2.75-16.7373,8.25-21.6147,5.5-4.8765,13.1621-7.3154,22.9902-7.3154h20.3506c9.8252,0,17.4893,2.439,22.9893,7.3154,5.5,4.8774,8.25,12.0825,8.25,21.6147,0,9.46-2.75,16.6289-8.25,21.5049-5.5,4.8779-13.1641,7.3149-22.9893,7.3149h-20.3506Zm0-12.6499h20.3506c4.7656,0,8.415-1.3198,10.9443-3.96,2.5303-2.6401,3.7949-6.71,3.7949-12.21,0-5.5723-1.2646-9.6802-3.7949-12.3198-2.5293-2.6401-6.1787-3.96-10.9443-3.96h-20.3506c-4.7676,0-8.415,1.3198-10.9453,3.96-2.5293,2.6396-3.7949,6.7476-3.7949,12.3198,0,5.5,1.2656,9.5698,3.7949,12.21,2.5303,2.6401,6.1777,3.96,10.9453,3.96Z"/><path class="d" d="M357.7002,351.3252v-78.6504h17.5996v64.3506h57.5303v14.2998h-75.1299Z"/><path class="d" d="M473.9688,351.875c-9.8271,0-17.4893-2.4365-22.9893-7.3145-5.5-4.876-8.25-12.0449-8.25-21.5049,0-9.5322,2.75-16.7373,8.25-21.6152,5.5-4.876,13.1621-7.3154,22.9893-7.3154h27.5c6.4521,0,11.3848,1.5234,14.7949,4.5654,3.4102,3.0439,5.1152,7.3887,5.1152,13.0352,0,11.5137-6.6377,17.2695-19.9102,17.2695h-41.5801c1.54,6.8203,6.2324,10.2305,14.0801,10.2305h44.5498v12.6494h-44.5498Zm0-45.0996c-7.5537,0-12.21,3.1895-13.9697,9.5693h40.7002c1.4658,0,2.6211-.4395,3.4648-1.3193,.8418-.8799,1.2646-2.0898,1.2646-3.6299,0-3.0801-1.5771-4.6201-4.7295-4.6201h-26.7305Z"/><path class="d" d="M551.8477,351.3252l-23.8701-56.6504h16.7207l18.4795,43.8906h5.5l18.4805-43.8906h16.7197l-23.8701,56.6504h-28.1602Z"/><path class="d" d="M641.7168,351.875c-9.8281,0-17.4902-2.4365-22.9902-7.3145-5.5-4.876-8.25-12.0449-8.25-21.5049,0-9.5322,2.75-16.7373,8.25-21.6152,5.5-4.876,13.1621-7.3154,22.9902-7.3154h27.5c6.4521,0,11.3848,1.5234,14.7949,4.5654,3.4102,3.0439,5.1152,7.3887,5.1152,13.0352,0,11.5137-6.6377,17.2695-19.9102,17.2695h-41.5801c1.54,6.8203,6.2324,10.2305,14.0801,10.2305h44.5498v12.6494h-44.5498Zm0-45.0996c-7.5537,0-12.21,3.1895-13.9697,9.5693h40.7002c1.4658,0,2.6211-.4395,3.4648-1.3193,.8418-.8799,1.2646-2.0898,1.2646-3.6299,0-3.0801-1.5771-4.6201-4.7295-4.6201h-26.7305Z"/><path class="d" d="M701.7754,351.3252v-78.6504h15.9502v78.6504h-15.9502Z"/><path class="d" d="M761.6143,351.875c-9.8281,0-17.4902-2.4365-22.9902-7.3145-5.5-4.876-8.25-12.0449-8.25-21.5049,0-9.5322,2.75-16.7373,8.25-21.6152,5.5-4.876,13.1621-7.3154,22.9902-7.3154h27.5c6.4521,0,11.3848,1.5234,14.7949,4.5654,3.4102,3.0439,5.1152,7.3887,5.1152,13.0352,0,11.5137-6.6377,17.2695-19.9102,17.2695h-41.5801c1.54,6.8203,6.2324,10.2305,14.0801,10.2305h44.5498v12.6494h-44.5498Zm0-45.0996c-7.5537,0-12.21,3.1895-13.9697,9.5693h40.7002c1.4658,0,2.6211-.4395,3.4648-1.3193,.8418-.8799,1.2646-2.0898,1.2646-3.6299,0-3.0801-1.5771-4.6201-4.7295-4.6201h-26.7305Z"/><path class="d" d="M821.6729,351.3252v-56.6504h43.3398c6.3799,0,11.0723,1.5957,14.0801,4.7852,3.0068,3.1904,4.5107,7.3887,4.5107,12.5957v11.7695h-16.1709v-9.79c0-4.4004-2.1992-6.5996-6.5996-6.5996h-22.9902v43.8896h-16.1699Z"/></g></svg>